Coordinates
version=1
nRows=14
nColumns=46
inDegrees=yes

Units are S.I. units (second, meters, Newtons, ...)
Angles are in degrees.

endheader
time	pelvis_tilt	pelvis_list	pelvis_rotation	pelvis_tx	pelvis_ty	pelvis_tz	bb_angle	bb_tx	bb_ty	bb_tz	hip_flexion_r	hip_adduction_r	hip_rotation_r	knee_angle_r	knee_angle_r_beta	ankle_angle_r	subtalar_angle_r	mtp_angle_r	crank_angle_r	hip_flexion_l	hip_adduction_l	hip_rotation_l	knee_angle_l	knee_angle_l_beta	ankle_angle_l	subtalar_angle_l	mtp_angle_l	crank_angle_l	lumbar_extension	lumbar_bending	lumbar_rotation	arm_flex_r	arm_add_r	arm_rot_r	elbow_flex_r	pro_sup_r	wrist_flex_r	wrist_dev_r	arm_flex_l	arm_add_l	arm_rot_l	elbow_flex_l	pro_sup_l	wrist_flex_l	wrist_dev_l
      5.00000000	    -10.02746129	     -1.01354745	      1.04863823	      0.05972386	      1.11152431	     -0.27698873	      0.00000000	      0.50000000	      0.00000000	      0.25000000	     55.47649473	     -1.60316448	      2.38800522	     52.23344093	      0.91164552	     -4.20737753	    -17.50520959	      0.00000000	      0.00000000	     64.37581098	     -3.55868398	      5.63568160	     98.94887840	      1.72698372	    -14.64962338	    -15.31003212	      0.00000000	      0.00000000	    -62.35730941	     -2.40549394	     -2.52718918	     89.59552152	    -11.89314287	     30.29092949	     43.78824916	     27.89933114	      0.00000000	      0.00000000	     89.53442811	    -17.10174249	     33.98802947	     49.27620693	     33.49164055	      0.00000000	      0.00000000
      5.00500000	     -9.82611957	     -0.36748907	      1.71494282	      0.06034872	      1.11241165	     -0.27563416	      0.00000000	      0.50000000	      0.00000000	      0.25000000	     53.56489984	     -2.53702355	      2.22051061	     49.79751697	      0.86913063	     -5.24295777	    -17.12085335	      0.00000000	      0.00000000	     65.41509352	     -2.98735424	      5.41540404	    100.53808245	      1.75472056	    -14.26794986	    -14.75967607	      0.00000000	      0.00000000	    -62.70992880	     -2.62284250	     -3.36988143	     89.57438755	    -12.03285621	     29.90625568	     43.84645998	     28.54688145	      0.00000000	      0.00000000	     89.53305019	    -16.78967128	     33.63443133	     49.82198586	     33.89821712	      0.00000000	      0.00000000
      5.01000000	    -10.07338862	      0.32810729	      2.20519766	      0.06106205	      1.11266625	     -0.27397447	      0.00000000	      0.50000000	      0.00000000	      0.25000000	     52.17143156	     -3.37731884	      2.14804931	     47.43713095	      0.82793412	     -6.04719792	    -16.48267369	      0.00000000	      0.00000000	     66.95825722	     -2.57202999	      5.05468020	    102.06682884	      1.78140222	    -14.05434319	    -14.40510826	      0.00000000	      0.00000000	    -62.50652072	     -3.09394006	     -4.27715252	     89.54174646	    -12.18699798	     29.95924275	     43.57268872	     28.50718697	      0.00000000	      0.00000000	     89.55311999	    -16.52459343	     33.77390391	     49.82998363	     33.88747896	      0.00000000	      0.00000000
      5.01500000	     -9.95024794	      0.85215895	      2.98933396	      0.06182041	      1.11357040	     -0.27267368	      0.00000000	      0.50000000	      0.00000000	      0.25000000	     50.28048377	     -4.31310532	      1.67313589	     45.04044753	      0.78610411	     -7.43115284	    -16.40515205	      0.00000000	      0.00000000	     68.15368769	     -2.00028774	      5.06229976	    103.56474058	      1.80754571	    -13.33684552	    -13.05492061	      0.00000000	      0.00000000	    -62.64604186	     -3.13274260	     -5.21849462	     89.56590408	    -11.88934595	     30.56537218	     42.34258318	     28.33966130	      0.00000000	      0.00000000	     89.55964412	    -16.42901135	     33.81210383	     49.74226179	     33.75192348	      0.00000000	      0.00000000
      5.02000000	    -10.08964976	      1.42140549	      3.58667522	      0.06245289	      1.11410529	     -0.27100689	      0.00000000	      0.50000000	      0.00000000	      0.25000000	     48.72948194	     -5.11103805	      1.45054440	     42.77598501	      0.74658178	     -8.57987057	    -15.92829165	      0.00000000	      0.00000000	     69.63106787	     -1.63182239	      4.84636267	    104.97197858	      1.83210665	    -12.81860205	    -12.16474368	      0.00000000	      0.00000000	    -62.57336486	     -3.37932315	     -6.10659754	     89.56498792	    -11.71026276	     30.93226434	     41.54876899	     28.22762872	      0.00000000	      0.00000000	     89.56929080	    -16.27704969	     33.79093796	     49.76739013	     33.61072092	      0.00000000	      0.00000000
      5.02500000	    -10.16947729	      2.18153093	      4.34575164	      0.06293216	      1.11504947	     -0.26911673	      0.00000000	      0.50000000	      0.00000000	      0.25000000	     47.08823439	     -6.11678802	      1.23659283	     40.54014712	      0.70755905	     -9.70459558	    -15.56369198	      0.00000000	      0.00000000	     70.98996746	     -1.05352965	      4.48701213	    106.15165157	      1.85269583	    -12.50096631	    -11.38685385	      0.00000000	      0.00000000	    -62.63871228	     -3.62266209	     -7.15961605	     89.55908784	    -11.62234007	     31.12166706	     40.96481168	     28.14775822	      0.00000000	      0.00000000	     89.58792073	    -16.07874926	     33.76696843	     49.84497437	     33.49003062	      0.00000000	      0.00000000
      5.03000000	    -10.41853103	      2.79615518	      4.88340287	      0.06341290	      1.11533476	     -0.26785399	      0.00000000	      0.50000000	      0.00000000	      0.25000000	     45.75149825	     -6.98219483	      0.86906637	     38.47897453	      0.67158480	    -10.73428939	    -14.81582771	      0.00000000	      0.00000000	     72.60545425	     -0.67527561	      4.12191771	    107.40958138	      1.87465084	    -12.15068157	    -10.80048167	      0.00000000	      0.00000000	    -62.50846205	     -3.91927829	     -7.91646376	     89.54440492	    -11.66467884	     31.20201087	     40.57966256	     28.09489194	      0.00000000	      0.00000000	     89.59398473	    -15.80755803	     33.78995849	     49.91195094	     33.42734458	      0.00000000	      0.00000000
      5.03500000	    -10.74536392	      3.41772897	      5.47504002	      0.06382400	      1.11564639	     -0.26630396	      0.00000000	      0.50000000	      0.00000000	      0.25000000	     44.50943965	     -7.81748572	      0.64395390	     36.55186808	      0.63795045	    -11.64356769	    -14.08988370	      0.00000000	      0.00000000	     74.28052390	     -0.34190366	      3.65919590	    108.50753581	      1.89381376	    -11.90213234	    -10.34205046	      0.00000000	      0.00000000	    -62.29584498	     -4.17771788	     -8.67093541	     89.51839924	    -11.80159626	     31.21219070	     40.33000146	     28.06348881	      0.00000000	      0.00000000	     89.60850790	    -15.49407475	     33.84350558	     49.98552997	     33.40925928	      0.00000000	      0.00000000
      5.04000000	    -11.06959154	      3.97947748	      6.02233914	      0.06398539	      1.11585920	     -0.26496568	      0.00000000	      0.50000000	      0.00000000	      0.25000000	     43.35282383	     -8.61989629	      0.27602725	     34.76541833	      0.60677102	    -12.59388719	    -13.36660826	      0.00000000	      0.00000000	     75.98060654	      0.00125005	      3.28299725	    109.52737088	      1.91161324	    -11.63600246	     -9.71540130	      0.00000000	      0.00000000	    -62.13005826	     -4.46706438	     -9.42028199	     89.50265805	    -11.95076722	     31.23769451	     40.04277779	     28.02248132	      0.00000000	      0.00000000	     89.62462905	    -15.19177140	     33.89790824	     50.03552435	     33.38651224	      0.00000000	      0.00000000
      5.04500000	    -11.18439610	      4.41377296	      6.87538666	      0.06420535	      1.11658685	     -0.26382950	      0.00000000	      0.50000000	      0.00000000	      0.25000000	     41.92917833	     -9.53923031	     -0.63465214	     33.08159985	      0.57738284	    -13.81859062	    -12.77326739	      0.00000000	      0.00000000	     77.42075022	      0.56010207	      3.19017745	    110.40945982	      1.92700860	    -10.99336483	     -8.29286987	      0.00000000	      0.00000000	    -62.09699706	     -4.32789767	    -10.09374786	     89.51446682	    -11.91203300	     31.57781738	     39.08588942	     27.89154290	      0.00000000	      0.00000000	     89.62829163	    -14.86780028	     33.91466702	     49.86773207	     33.21547002	      0.00000000	      0.00000000
      5.05000000	    -11.57723130	      4.85215632	      7.28928931	      0.06428929	      1.11659103	     -0.26225400	      0.00000000	      0.50000000	      0.00000000	      0.25000000	     41.02050660	    -10.12182389	     -0.97778374	     31.73305085	      0.55384622	    -14.39317972	    -12.11030301	      0.00000000	      0.00000000	     79.16123396	      0.65055832	      2.80412066	    111.22808012	      1.94129622	    -10.70654131	     -8.04817007	      0.00000000	      0.00000000	    -61.83024478	     -4.66213966	    -10.69533905	     89.48485799	    -12.09402989	     31.57855576	     38.90456919	     27.86297636	      0.00000000	      0.00000000	     89.64146425	    -14.62757458	     33.97223811	     49.91681720	     33.19028188	      0.00000000	      0.00000000
      5.05500000	    -11.90580463	      5.19474904	      8.10431782	      0.06427813	      1.11704664	     -0.26128248	      0.00000000	      0.50000000	      0.00000000	      0.25000000	     40.00374758	    -10.93502545	     -1.84398830	     30.47948509	      0.53196737	    -15.31986131	    -11.25228530	      0.00000000	      0.00000000	     80.80854720	      1.17493801	      2.65161390	    111.83161582	      1.95182990	    -10.52918653	     -6.98135672	      0.00000000	      0.00000000	    -61.59078680	     -4.48813244	    -11.15895280	     89.49108385	    -12.24122385	     31.81454734	     38.17845846	     27.77613002	      0.00000000	      0.00000000	     89.64549468	    -14.27990471	     34.11286921	     49.81806616	     33.01985405	      0.00000000	      0.00000000
      5.06000000	    -12.23556350	      5.37276808	      8.72556159	      0.06387589	      1.11716044	     -0.26001839	      0.00000000	      0.50000000	      0.00000000	      0.25000000	     39.13866181	    -11.38964509	     -2.42423855	     29.45846964	      0.51414729	    -15.97304639	    -10.68178310	      0.00000000	      0.00000000	     82.48233948	      1.45508822	      2.55685966	    112.35562184	      1.96097553	    -10.29603233	     -6.37276271	      0.00000000	      0.00000000	    -61.33736725	     -4.41522086	    -11.46864152	     89.48593382	    -12.40559674	     32.11706414	     37.62717963	     27.73023735	      0.00000000	      0.00000000	     89.65731015	    -13.97635580	     34.21450170	     49.81814153	     32.83473101	      0.00000000	      0.00000000
      5.06500000	    -12.62424902	      5.72334839	      9.25440390	      0.06371626	      1.11770728	     -0.25876003	      0.00000000	      0.50000000	      0.00000000	      0.25000000	     38.38823010	    -11.92005555	     -2.69367574	     28.56050533	      0.49847485	    -16.66366956	    -10.17770410	      0.00000000	      0.00000000	     84.01650952	      1.69615179	      2.17606424	    112.64288344	      1.96598919	    -10.23421242	     -6.00312381	      0.00000000	      0.00000000	    -61.13493792	     -4.53745272	    -11.87836555	     89.46427106	    -12.69376264	     32.16737777	     37.39369583	     27.70697497	      0.00000000	      0.00000000	     89.66543439	    -13.68139323	     34.29669380	     49.94421350	     32.77935153	      0.00000000	      0.00000000
